<?xml version="1.0" standalone="no"?>
<!DOCTYPE svg PUBLIC "-//W3C//DTD SVG 20010904//EN"
 "http://www.w3.org/TR/2001/REC-SVG-20010904/DTD/svg10.dtd">
<svg version="1.0" xmlns="http://www.w3.org/2000/svg"
 width="2363.000000pt" height="2363.000000pt" viewBox="0 0 2363.000000 2363.000000"
 preserveAspectRatio="xMidYMid meet">
<metadata>
Created by potrace 1.11, written by Peter Selinger 2001-2013
</metadata>
<g transform="translate(0.000000,2363.000000) scale(0.100000,-0.100000)"
fill="#000000" stroke="none">
<path d="M15310 20351 c-390 -85 -624 -429 -607 -891 10 -264 84 -446 247
-610 94 -94 173 -142 300 -182 66 -20 95 -23 240 -23 145 0 174 3 240 23 130
41 206 87 306 187 80 80 98 104 142 195 82 169 97 240 96 460 0 172 -2 192
-28 275 -88 293 -267 481 -528 555 -107 31 -295 36 -408 11z m319 -186 c146
-35 265 -130 339 -272 68 -132 85 -210 85 -393 0 -140 -3 -164 -27 -245 -38
-125 -80 -199 -156 -276 -106 -108 -210 -149 -375 -149 -174 0 -275 39 -385
150 -75 75 -128 172 -161 296 -29 107 -32 335 -5 439 60 236 210 402 402 449
78 19 204 19 283 1z"/>
<path d="M2800 19500 l0 -830 110 0 110 0 0 830 0 830 -110 0 -110 0 0 -830z"/>
<path d="M3442 19503 l3 -828 105 0 105 0 5 658 5 658 430 -661 430 -661 120
3 120 3 3 828 2 827 -110 0 -110 0 -2 -664 -3 -664 -430 663 -430 664 -123 1
-122 0 2 -827z"/>
<path d="M5000 20235 l0 -95 275 0 275 0 0 -735 0 -735 110 0 110 0 0 735 0
735 278 2 277 3 3 93 3 92 -666 0 -665 0 0 -95z"/>
<path d="M6562 19503 l3 -828 573 -3 572 -2 0 95 0 95 -460 0 -460 0 0 285 0
285 425 0 425 0 0 95 0 95 -425 0 -425 0 0 260 0 260 458 2 457 3 3 93 3 92
-576 0 -575 0 2 -827z"/>
<path d="M8032 19503 l3 -828 110 0 110 0 3 353 2 353 313 -3 c300 -3 314 -4
354 -25 100 -54 135 -158 153 -452 7 -112 14 -163 27 -190 l18 -36 123 -3 c67
-1 122 0 122 2 0 3 -9 21 -21 40 -36 62 -49 125 -64 311 -19 230 -39 299 -103
367 -32 33 -64 54 -102 68 -30 10 -49 19 -42 20 24 0 100 42 142 77 167 143
183 454 32 624 -50 56 -137 103 -238 129 -71 18 -112 20 -511 20 l-433 0 2
-827z m887 621 c107 -31 171 -131 171 -264 0 -131 -54 -217 -166 -261 -56 -22
-74 -23 -361 -27 l-303 -4 0 286 0 286 303 0 c246 0 313 -3 356 -16z"/>
<path d="M9670 19500 l0 -830 105 0 105 0 0 662 c0 506 3 659 12 650 6 -6 201
-303 433 -659 l422 -648 121 -3 122 -3 0 831 0 830 -105 0 -105 0 0 -672 0
-671 -436 671 -436 672 -119 0 -119 0 0 -830z"/>
<path d="M11839 20303 c-6 -16 -150 -384 -320 -820 -170 -435 -309 -797 -309
-803 0 -7 36 -10 112 -8 l112 3 91 245 92 245 350 3 350 2 89 -247 90 -248
123 -3 c115 -2 123 -1 117 15 -3 10 -149 384 -323 831 l-317 812 -123 0 -123
0 -11 -27z m266 -549 c72 -201 131 -372 133 -380 3 -12 -38 -14 -273 -14 -154
0 -275 4 -273 9 2 5 64 176 138 380 74 204 137 371 140 371 3 0 64 -165 135
-366z"/>
<path d="M12570 20235 l0 -95 275 0 275 0 2 -732 3 -733 110 0 110 0 3 732 2
733 273 2 272 3 3 93 3 92 -666 0 -665 0 0 -95z"/>
<path d="M14142 19503 l3 -828 110 0 110 0 3 828 2 827 -115 0 -115 0 2 -827z"/>
<path d="M16602 19503 l3 -828 102 -3 103 -3 2 666 3 665 431 -663 432 -662
121 -3 121 -3 0 831 0 830 -105 0 -105 0 -2 -667 -3 -667 -433 667 -433 667
-120 0 -119 0 2 -827z"/>
<path d="M18777 20318 c-66 -165 -637 -1632 -637 -1639 0 -6 46 -8 112 -7
l112 3 92 245 92 245 350 3 349 2 90 -247 90 -248 122 -3 c66 -1 121 1 121 5
0 4 -145 377 -322 830 l-321 823 -122 0 c-89 0 -124 -3 -128 -12z m262 -573
c74 -207 132 -378 129 -380 -3 -3 -127 -4 -275 -3 l-270 3 136 377 c75 208
138 378 141 378 3 0 65 -169 139 -375z"/>
<path d="M19890 19500 l0 -830 548 2 547 3 3 93 3 92 -441 0 -440 0 0 735 0
735 -110 0 -110 0 0 -830z"/>
<path d="M3511 17015 c-219 -48 -388 -140 -541 -294 -142 -142 -229 -296 -281
-496 l-24 -90 0 -4320 0 -4320 23 -88 c109 -411 414 -705 819 -788 89 -19 295
-19 8345 -17 l8253 3 90 28 c193 60 333 142 465 276 141 142 233 305 283 500
l22 86 0 4325 0 4325 -27 99 c-68 245 -226 469 -428 606 -82 55 -206 113 -315
147 l-90 28 -8265 2 c-7021 1 -8275 -1 -8329 -12z m16597 -323 c247 -76 429
-251 510 -487 l27 -80 0 -4310 0 -4310 -27 -80 c-81 -239 -269 -416 -515 -487
l-78 -23 -8210 0 -8210 0 -78 23 c-246 71 -429 244 -514 487 l-28 80 0 4310 0
4310 27 78 c92 271 324 466 603 507 27 4 3733 7 8235 6 l8185 -1 73 -23z"/>
<path d="M16655 15483 c-635 -51 -1154 -212 -1655 -513 -282 -169 -503 -344
-747 -593 -175 -179 -289 -319 -422 -517 -322 -481 -516 -1001 -596 -1600 -22
-164 -30 -533 -16 -715 60 -754 331 -1444 797 -2030 120 -150 422 -451 574
-571 938 -742 2150 -986 3296 -664 377 106 724 268 1054 491 128 86 296 216
265 205 -11 -4 -54 -20 -95 -36 -186 -69 -448 -128 -690 -156 -198 -22 -585
-15 -780 15 -1505 232 -2610 1515 -2610 3031 0 692 235 1362 670 1910 106 135
345 374 480 480 385 306 835 515 1310 610 231 46 332 55 615 55 218 -1 285 -5
415 -24 163 -24 448 -92 563 -134 37 -14 63 -19 57 -12 -20 24 -237 174 -360
247 -584 351 -1248 533 -1919 526 -92 -1 -184 -3 -206 -5z"/>
<path d="M6950 14150 l0 -1270 -1270 0 -1270 0 0 -1090 0 -1090 1270 0 1270 0
0 -1270 0 -1270 1085 0 1085 0 0 1270 0 1270 1270 0 1270 0 0 1090 0 1090
-1270 0 -1270 0 0 1270 0 1270 -1085 0 -1085 0 0 -1270z"/>
<path d="M16295 4975 c-265 -58 -459 -230 -555 -494 -86 -235 -79 -528 19
-762 68 -162 196 -301 344 -374 140 -68 195 -80 377 -80 147 1 160 3 251 33
357 119 563 480 527 925 -27 330 -209 604 -474 711 -132 54 -349 72 -489 41z
m324 -190 c149 -39 270 -142 339 -287 63 -132 77 -198 76 -378 -1 -139 -3
-164 -28 -245 -36 -120 -86 -207 -160 -280 -103 -101 -218 -145 -379 -145
-218 0 -386 106 -481 302 -60 126 -81 222 -80 378 1 340 162 592 419 656 69
17 229 17 294 -1z"/>
<path d="M4730 4125 l0 -825 110 0 110 0 0 375 0 375 380 0 380 0 0 95 0 95
-380 0 -380 0 0 260 0 260 433 2 432 3 3 93 3 92 -546 0 -545 0 0 -825z"/>
<path d="M6110 4125 l0 -825 580 0 581 0 -3 93 -3 92 -462 3 -463 2 0 280 0
280 428 2 427 3 3 93 3 92 -431 0 -430 0 0 260 0 260 458 2 457 3 3 93 3 92
-576 0 -575 0 0 -825z"/>
<path d="M7580 4125 l0 -826 383 3 c357 4 387 5 461 26 351 98 518 362 520
822 1 167 -11 249 -51 365 -73 205 -230 345 -458 407 -74 20 -107 22 -467 26
l-388 3 0 -826z m825 607 c167 -62 262 -185 301 -389 21 -112 15 -366 -10
-458 -56 -203 -186 -337 -367 -380 -47 -11 -124 -15 -291 -15 l-228 0 0 636 0
636 268 -4 c245 -4 272 -6 327 -26z"/>
<path d="M9270 4125 l0 -825 575 0 575 0 0 95 0 95 -465 0 -465 0 0 280 0 280
430 0 430 0 0 95 0 95 -430 0 -430 0 0 260 0 260 460 0 460 0 0 95 0 95 -570
0 -570 0 0 -825z"/>
<path d="M10740 4125 l0 -825 115 0 115 0 0 350 0 350 298 0 c163 0 313 -4
332 -10 121 -34 171 -155 189 -463 6 -96 15 -168 25 -191 l15 -36 125 0 125 0
-25 44 c-33 59 -50 150 -63 326 -19 265 -64 360 -192 408 l-53 19 45 20 c107
49 173 125 210 243 26 85 28 218 3 297 -46 147 -173 251 -348 284 -27 5 -244
9 -482 9 l-434 0 0 -825z m926 608 c94 -50 140 -148 132 -277 -10 -148 -91
-228 -258 -255 -36 -6 -179 -11 -317 -11 l-253 0 0 286 0 285 328 -3 c314 -3
329 -4 368 -25z"/>
<path d="M12821 4928 c-5 -13 -149 -381 -320 -820 -171 -438 -311 -799 -311
-802 0 -3 51 -6 113 -6 l112 0 91 243 91 242 350 3 351 2 45 -122 c24 -68 64
-178 88 -245 l44 -123 123 0 c96 0 123 3 119 13 -2 7 -145 372 -317 812 -172
440 -315 806 -317 813 -4 9 -39 12 -129 12 -120 0 -125 -1 -133 -22z m267
-560 c73 -205 133 -376 132 -380 0 -5 -124 -8 -276 -8 -153 0 -274 4 -272 9 2
5 64 176 138 380 74 204 137 371 140 371 3 0 65 -168 138 -372z"/>
<path d="M13552 4858 l3 -93 273 -3 272 -2 0 -730 0 -730 115 0 115 0 0 730 0
730 273 2 272 3 3 93 3 92 -666 0 -666 0 3 -92z"/>
<path d="M15120 4125 l0 -825 115 0 115 0 0 825 0 825 -115 0 -115 0 0 -825z"/>
<path d="M17580 4125 l0 -825 105 0 105 0 2 662 3 662 430 -661 430 -662 123
-1 122 0 0 825 0 825 -105 0 -105 0 -2 -665 -3 -665 -430 662 -431 663 -122 3
-122 3 0 -826z"/>
</g>
</svg>
