<?xml version="1.0" standalone="no"?>
<!DOCTYPE svg PUBLIC "-//W3C//DTD SVG 20010904//EN"
 "http://www.w3.org/TR/2001/REC-SVG-20010904/DTD/svg10.dtd">
<svg version="1.0" xmlns="http://www.w3.org/2000/svg"
 width="270.000000pt" height="157.000000pt" viewBox="0 0 270.000000 157.000000"
 preserveAspectRatio="xMidYMid meet">
<metadata>
Created by potrace 1.15, written by Peter Selinger 2001-2017
</metadata>
<g transform="translate(0.000000,157.000000) scale(0.100000,-0.100000)"
fill="rgb(242, 55, 69)" stroke="none">
<path d="M103 1500 c-65 -39 -63 -12 -63 -727 0 -633 1 -649 20 -681 12 -20
38 -41 65 -53 43 -19 73 -19 1247 -17 l1203 3 33 23 c65 47 62 16 62 729 0
625 -1 649 -20 680 -41 67 48 63 -1297 63 -1190 0 -1219 -1 -1250 -20z m2493
-54 l34 -34 0 -631 c0 -525 -2 -637 -14 -659 -31 -60 40 -57 -1261 -57 -1301
0 -1230 -3 -1261 57 -12 22 -14 134 -14 659 l0 631 34 34 34 34 1207 0 1207 0
34 -34z"/>
<path d="M1955 1286 c-320 -79 -486 -440 -342 -746 36 -77 145 -191 223 -232
167 -89 413 -74 558 35 17 12 9 12 -53 -1 -187 -40 -388 62 -478 245 -33 67
-38 86 -41 167 -6 140 33 240 132 337 103 102 275 154 395 119 51 -14 49 -5
-4 26 -101 59 -267 80 -390 50z"/>
<path d="M658 1108 l-3 -183 -182 -3 -183 -2 0 -150 0 -150 183 -2 182 -3 3
-182 2 -183 150 0 150 0 2 183 3 182 183 3 182 2 0 150 0 150 -182 2 -183 3
-3 183 -2 182 -150 0 -150 0 -2 -182z"/>
</g>
</svg>
