<svg fill="none" height="130" viewBox="0 0 261 130" width="261" xmlns="http://www.w3.org/2000/svg"><path clip-rule="evenodd" d="m201.547 53.0034-.131-.0011-.158-.0011c-.145-.0008-.289-.0012-.433-.0012-41.422 0-75 33.5786-75 75 0-39.0011-29.7696-71.0491-67.825-74.6612 9.2943-30.8607 37.9344-53.3388 71.825-53.3388 33.767 0 62.322 22.3154 71.722 53.0034zm-75.696 76.9966c-.018-.665-.026-1.331-.026-2 0 .669-.009 1.335-.027 2zm134.504 0h-116.268c1.672-30.6565 27.06-55 58.134-55s56.462 24.3435 58.134 55zm-144 0h-116.2677808c1.6717808-30.6565 27.0599808-55 58.1337808-55s56.462 24.3435 58.134 55z" fill="#242a33" fill-rule="evenodd"/></svg>